<svg xmlns="http://www.w3.org/2000/svg" xmlns:xlink="http://www.w3.org/1999/xlink" viewBox="0,0,256,256" width="52px" height="52px" fill-rule="nonzero"><g fill="#918f8e" fill-rule="nonzero" stroke="none" stroke-width="1" stroke-linecap="butt" stroke-linejoin="miter" stroke-miterlimit="10" stroke-dasharray="" stroke-dashoffset="0" font-family="none" font-weight="none" font-size="none" text-anchor="none" style="mix-blend-mode: normal"><g transform="scale(9.84615,9.84615)"><path d="M4.875,0c-2.69141,0 -4.875,2.18359 -4.875,4.875v16.25c0,2.69141 2.18359,4.875 4.875,4.875h16.25c2.69141,0 4.875,-2.18359 4.875,-4.875v-16.25c0,-2.69141 -2.18359,-4.875 -4.875,-4.875zM4.875,2h16.25c1.58594,0 2.875,1.28906 2.875,2.875v4.125h-4.09375c-1.38672,-2.38672 -3.95312,-4 -6.90625,-4c-2.95312,0 -5.51953,1.61328 -6.90625,4h-4.09375v-4.125c0,-1.58594 1.28906,-2.875 2.875,-2.875zM20,3c-0.55078,0 -1,0.44922 -1,1v2c0,0.55078 0.44922,1 1,1h2c0.55078,0 1,-0.44922 1,-1v-2c0,-0.55078 -0.44922,-1 -1,-1zM13,7c1.77734,0 3.37109,0.77344 4.46875,2c0.01172,0.01172 0.02344,0.01953 0.03125,0.03125c0.04688,0.05078 0.08203,0.10547 0.125,0.15625c0.12109,0.14844 0.23438,0.30859 0.34375,0.46875c0.04297,0.0625 0.08594,0.12109 0.125,0.1875c0.16016,0.25781 0.31641,0.53125 0.4375,0.8125c0.02344,0.05078 0.04297,0.10547 0.0625,0.15625c0.05078,0.12891 0.08203,0.27344 0.125,0.40625c0.03516,0.11328 0.06641,0.23047 0.09375,0.34375c0.01953,0.07422 0.04688,0.14453 0.0625,0.21875c0.00781,0.03125 0.02344,0.0625 0.03125,0.09375c0.03125,0.16406 0.04688,0.33203 0.0625,0.5c0.02344,0.20703 0.03125,0.41016 0.03125,0.625c0,1.24219 -0.38281,2.38672 -1.03125,3.34375c-0.97266,1.4375 -2.52734,2.44141 -4.34375,2.625c-0.20312,0.01953 -0.41797,0.03125 -0.625,0.03125c-1.86328,0 -3.52344,-0.85547 -4.625,-2.1875c-0.12109,-0.14844 -0.23437,-0.30859 -0.34375,-0.46875c-0.64844,-0.95703 -1.03125,-2.10156 -1.03125,-3.34375c0,-0.1875 0.01563,-0.37891 0.03125,-0.5625c0.00391,-0.01953 -0.00391,-0.04297 0,-0.0625c0.00391,-0.05469 0.02344,-0.10156 0.03125,-0.15625c0.01953,-0.14453 0.03125,-0.29297 0.0625,-0.4375c0.03125,-0.15234 0.08203,-0.28906 0.125,-0.4375c0.01172,-0.03906 0.01953,-0.08594 0.03125,-0.125c0.01563,-0.05078 0.01563,-0.10547 0.03125,-0.15625c0.03516,-0.10547 0.08203,-0.21094 0.125,-0.3125c0.01172,-0.03125 0.01953,-0.0625 0.03125,-0.09375c0.12109,-0.28125 0.27734,-0.55469 0.4375,-0.8125c0.03906,-0.06641 0.08203,-0.125 0.125,-0.1875c0.14453,-0.21484 0.29688,-0.42969 0.46875,-0.625c0.01172,-0.01172 0.01953,-0.01953 0.03125,-0.03125c1.09766,-1.22656 2.69141,-2 4.46875,-2zM13,9.1875c-0.72656,0 -1.39062,0.21094 -1.96875,0.5625c0.17969,-0.05469 0.36719,-0.09375 0.5625,-0.09375c1.06641,0 1.9375,0.86719 1.9375,1.9375c0,1.06641 -0.87109,1.9375 -1.9375,1.9375c-1.06641,0 -1.9375,-0.87109 -1.9375,-1.9375c0,-0.19922 0.03906,-0.38281 0.09375,-0.5625c-0.35156,0.57813 -0.5625,1.24219 -0.5625,1.96875c0,2.10547 1.70313,3.8125 3.8125,3.8125c2.10547,0 3.8125,-1.70312 3.8125,-3.8125c0,-2.10937 -1.70703,-3.8125 -3.8125,-3.8125z"></path></g></g></svg>